<svg xmlns="http://www.w3.org/2000/svg" viewBox="0 0 100 100" width="100" height="100">

  <!-- Stem -->
  <path d="M 50 17 C 52 11 58 7 65 5" stroke="#2A6B3A" stroke-width="2.5" fill="none" stroke-linecap="round"/>

  <!-- Leaf -->
  <path d="M 60 8 Q 70 2 74 10 Q 66 15 60 8 Z" fill="#3A7A48"/>
  <path d="M 60 8 L 74 10" stroke="#2A6B3A" stroke-width="0.8" fill="none"/>

  <!-- Row 1 (top, 1 grape) -->
  <circle cx="50" cy="25" r="8" fill="#5B3494"/>

  <!-- Row 2 (2 grapes, offset) -->
  <circle cx="41" cy="39" r="8" fill="#1A6080"/>
  <circle cx="59" cy="39" r="8" fill="#5B3494"/>

  <!-- Row 3 (3 grapes) -->
  <circle cx="32" cy="53" r="8" fill="#5B3494"/>
  <circle cx="50" cy="53" r="8" fill="#1A6080"/>
  <circle cx="68" cy="53" r="8" fill="#5B3494"/>

  <!-- Row 4 (2 grapes, offset) -->
  <circle cx="41" cy="67" r="8" fill="#1A6080"/>
  <circle cx="59" cy="67" r="8" fill="#5B3494"/>

  <!-- Row 5 (bottom, 1 grape) -->
  <circle cx="50" cy="82" r="8" fill="#1A6080"/>

  <!-- Highlights (soft sheen on upper-left of each grape) -->
  <circle cx="46.5" cy="21.5" r="2.5" fill="white" opacity="0.28"/>
  <circle cx="37.5" cy="35.5" r="2.5" fill="white" opacity="0.28"/>
  <circle cx="55.5" cy="35.5" r="2.5" fill="white" opacity="0.28"/>
  <circle cx="28.5" cy="49.5" r="2.5" fill="white" opacity="0.28"/>
  <circle cx="46.5" cy="49.5" r="2.5" fill="white" opacity="0.28"/>
  <circle cx="64.5" cy="49.5" r="2.5" fill="white" opacity="0.28"/>
  <circle cx="37.5" cy="63.5" r="2.5" fill="white" opacity="0.28"/>
  <circle cx="55.5" cy="63.5" r="2.5" fill="white" opacity="0.28"/>
  <circle cx="46.5" cy="78.5" r="2.5" fill="white" opacity="0.28"/>
</svg>
